<svg version="1.1" id="Layer_1" xmlns="http://www.w3.org/2000/svg" xmlns:xlink="http://www.w3.org/1999/xlink" x="0px" y="0px"
	 width="100%" viewBox="0 0 500 500" enable-background="new 0 0 500 500" xml:space="preserve">
<path fill="#FFFFFF" opacity="1.000000" stroke="none" 
	d="
M501.000000,234.000000 
	C501.000000,322.980713 501.000000,411.961395 501.000000,500.971069 
	C334.388763,500.971069 167.777512,500.971069 1.083136,500.971069 
	C1.083136,334.424927 1.083136,167.849792 1.083136,1.137331 
	C167.666595,1.137331 334.333282,1.137331 501.000000,1.137331 
	C501.000000,73.434547 501.000000,145.752258 500.572510,218.540482 
	C495.879547,218.881271 491.815613,219.327759 488.543091,222.829315 
	C484.973907,220.479309 484.132660,223.338791 482.558472,225.419632 
	C481.810028,226.326401 481.345245,227.062881 480.577972,227.947311 
	C478.830505,230.331146 477.385529,232.567017 475.691589,234.972717 
	C475.169556,235.675278 474.896545,236.208023 474.693481,236.780579 
	C474.763458,236.820374 474.759308,236.659409 474.456543,236.872070 
	C473.746277,237.942642 473.338776,238.800537 472.961700,239.606598 
	C472.992126,239.554779 472.931030,239.451248 472.631897,239.652740 
	C469.539062,244.297073 466.745422,248.739944 463.440735,253.995560 
	C462.734772,250.877945 462.045471,248.723358 461.782623,246.517929 
	C460.685272,237.311615 455.073822,231.705124 447.271667,227.648163 
	C445.306458,226.626297 443.975281,226.200317 442.128815,228.041794 
	C430.526215,239.612747 420.065186,251.932587 413.099731,267.021820 
	C409.555237,274.700104 410.530792,281.451263 414.972168,288.140289 
	C417.755768,292.332520 421.591339,292.461426 423.726013,287.959259 
	C428.959229,276.921875 433.648987,265.627960 438.787140,254.543777 
	C440.888214,250.011307 444.038605,246.267548 449.630249,244.628922 
	C449.797394,246.177307 449.981537,247.281570 450.026154,248.391449 
	C450.398743,257.658447 450.632599,266.932953 451.161163,276.190704 
	C451.348511,279.472107 451.522583,283.098541 453.014374,285.858490 
	C454.345032,288.320435 457.250763,290.302795 459.906097,291.550415 
	C461.774353,292.428253 464.387848,291.720062 467.162445,291.720062 
	C471.414520,281.561859 476.312256,270.774628 480.454224,259.704651 
	C484.450134,249.025024 491.556915,240.996445 500.105011,233.937256 
	C500.272095,233.799271 500.695953,233.972153 501.000000,234.000000 
M327.832550,230.966644 
	C329.956299,229.518250 332.080048,228.069870 334.203796,226.621475 
	C333.688599,226.015472 333.173401,225.409485 332.658173,224.803482 
	C330.742615,226.838867 328.827057,228.874252 326.213043,231.009811 
	C326.103424,232.749832 325.993835,234.489838 325.884216,236.229858 
	C326.300262,236.221664 326.716278,236.213486 327.132294,236.205292 
	C327.132294,234.509476 327.132294,232.813660 327.832550,230.966644 
M280.032837,290.083771 
	C279.834686,289.896027 279.636505,289.708282 279.407227,288.828278 
	C279.949371,286.201782 279.966522,283.288055 281.197327,281.038269 
	C282.208862,279.189178 285.814850,278.422363 286.262909,276.664154 
	C287.700623,271.022461 293.323273,267.022858 292.230530,260.313934 
	C291.972961,258.732330 294.333832,256.598999 295.718536,254.906265 
	C297.537994,252.682037 299.793915,250.794952 301.469452,248.478790 
	C302.979034,246.391953 304.120758,243.991241 305.140900,241.607498 
	C307.665619,235.707993 311.010986,229.816101 308.212494,223.135818 
	C307.404205,221.206345 305.450623,219.756653 304.022125,218.086990 
	C302.388153,219.488419 300.275513,220.595734 299.202698,222.341904 
	C294.427460,230.114212 289.947479,238.068024 285.365845,245.959167 
	C283.999268,248.312912 282.533478,249.400192 279.355499,248.548676 
	C274.175720,247.160843 269.151154,248.258865 264.809631,251.744461 
	C264.075317,252.334000 263.022736,252.527145 261.430695,253.188705 
	C265.831848,245.921295 269.972717,239.585953 273.586853,232.963150 
	C276.699249,227.259750 276.331970,219.571167 270.971100,214.797699 
	C267.716370,211.899567 264.825836,212.545044 262.883484,216.486359 
	C261.343384,219.611481 259.625519,222.648575 258.061279,225.762299 
	C253.083099,235.671753 248.029755,245.545975 243.236511,255.544601 
	C241.284042,259.617371 239.739639,263.518158 234.802933,265.237030 
	C232.548294,266.022095 231.003708,268.846375 228.585724,271.306763 
	C232.101593,271.306763 234.846329,271.306763 237.387665,271.306763 
	C236.926651,276.391144 235.204468,281.507782 236.452057,285.751282 
	C237.571701,289.559570 241.956604,292.407867 244.810379,295.578918 
	C246.077271,294.578003 246.282043,294.501068 246.317352,294.376221 
	C248.528809,286.556091 250.607651,278.695282 253.012741,270.935516 
	C253.580765,269.102844 255.120529,266.305847 256.421173,266.184723 
	C262.065918,265.658997 267.787567,265.959229 273.616486,265.959229 
	C271.316986,271.714844 268.650024,277.578766 266.618866,283.655212 
	C263.167114,293.981476 265.747375,299.268433 276.284149,303.890564 
	C278.189117,299.720825 280.101898,295.536499 281.953461,291.325226 
	C281.957611,291.315826 281.060303,290.910065 280.032837,290.083771 
M168.040558,301.526794 
	C164.247971,297.352600 160.463577,293.170959 156.661270,289.005646 
	C144.957901,276.184845 132.590103,263.766907 130.743240,244.491425 
	C130.945435,244.307480 131.778412,243.532654 132.629425,242.778168 
	C140.096695,236.157745 139.852722,226.551956 132.511200,219.646973 
	C126.825890,214.299698 120.848930,215.784622 114.886230,218.192154 
	C93.383530,226.874207 80.578911,243.018661 75.140221,265.310883 
	C72.856873,274.669922 78.853706,286.050934 87.767990,289.471802 
	C89.291771,290.056549 90.922478,291.970306 92.072189,291.661804 
	C99.632858,289.632874 107.911232,288.473755 114.283463,284.409424 
	C119.114082,281.328369 123.639160,276.853943 128.231567,272.920990 
	C129.051605,272.218689 129.911453,271.562927 131.609543,270.196228 
	C139.302628,281.388489 147.191757,291.820038 153.855865,302.982880 
	C157.425720,308.962616 162.415237,311.082306 168.196808,313.024384 
	C171.031433,309.199432 170.652359,305.690094 168.040558,301.526794 
M30.949715,257.460236 
	C34.310581,260.613617 37.671448,263.766968 41.936462,267.768646 
	C36.465698,270.672485 32.396450,273.237823 28.018606,275.062958 
	C21.100964,277.946960 13.932475,280.636292 8.818978,272.082275 
	C4.361231,274.897156 4.246506,277.964996 5.909721,282.512299 
	C7.481124,286.808533 10.348805,288.884521 13.696608,291.290894 
	C19.685209,295.595520 24.469788,295.979034 30.831423,291.698730 
	C32.416161,290.632446 33.987347,288.383148 35.443512,288.481018 
	C43.709568,289.036774 48.390656,282.923492 54.467686,279.241943 
	C60.428658,275.630737 59.530499,270.240295 58.792595,265.222504 
	C58.350807,262.218353 56.406956,258.661560 54.005943,256.874207 
	C48.372116,252.680313 42.076283,249.369156 36.001564,245.779984 
	C34.861332,245.106262 33.503429,244.800964 32.229465,244.319397 
	C40.794247,235.878754 50.688873,232.287354 61.785107,232.661804 
	C61.873314,233.991867 61.962746,235.340485 62.077633,237.072906 
	C66.172119,235.785461 70.274658,234.588989 70.807106,230.255890 
	C71.642738,223.455505 66.130127,217.650101 58.858624,217.146225 
	C46.440010,216.285660 35.088020,219.551025 25.076494,226.941666 
	C17.161432,232.784653 16.699579,247.100098 24.179705,253.607391 
	C25.913961,255.116104 28.336451,255.833694 30.949715,257.460236 
M194.027374,225.964890 
	C186.112656,226.581604 178.205261,227.477936 170.279831,227.685410 
	C166.828491,227.775772 165.684357,229.007935 165.967697,232.027252 
	C166.152039,233.991638 166.628799,235.949890 167.170685,237.855087 
	C168.348373,241.995483 170.373154,244.215881 175.431625,243.148102 
	C179.449707,242.299942 183.789780,242.977219 188.403137,242.977219 
	C185.216888,250.828156 182.143127,258.151520 179.274368,265.554321 
	C177.193100,270.925018 175.323349,276.172119 176.860992,282.344543 
	C178.321808,288.208496 180.342194,292.613281 187.470108,290.680511 
	C189.076218,285.767426 190.750046,280.766693 192.309006,275.730438 
	C192.509109,275.084015 192.022995,274.254211 192.011475,273.506927 
	C191.990250,272.128448 192.085312,270.748169 192.131912,269.368652 
	C197.154602,269.598541 195.442001,266.319000 195.335266,263.598572 
	C195.277451,262.125183 196.126999,260.616211 196.567230,259.123291 
	C201.660385,261.161255 200.615372,256.256653 201.017456,254.489532 
	C203.275436,244.565643 206.267563,241.548050 216.004395,239.765686 
	C226.514526,237.841736 236.968491,235.610977 247.422440,233.518982 
	C247.191849,232.464844 246.904861,231.658508 246.852783,230.837296 
	C246.276306,221.747330 241.456894,218.086929 232.192856,219.796600 
	C226.185501,220.905258 220.190186,222.079132 214.178131,223.225922 
	C212.782135,220.499985 211.343460,218.224808 210.419388,215.756912 
	C209.142242,212.346024 206.871323,212.437393 204.576950,214.056091 
	C202.891754,215.245010 201.731186,217.187805 200.368393,218.820969 
	C198.479187,221.084930 196.619598,223.373581 194.027374,225.964890 
M356.375031,229.608643 
	C365.853851,228.247086 373.835052,232.878647 381.647247,236.807556 
	C391.981201,242.004715 394.161011,247.233292 392.665771,257.123444 
	C391.418915,256.004517 390.104431,254.824890 388.641602,253.512161 
	C388.641602,260.287170 389.035553,267.212097 388.530487,274.070801 
	C388.028351,280.890228 385.857697,287.346130 381.776703,293.192657 
	C389.059906,290.532074 393.504852,284.456665 396.529999,277.943115 
	C404.468079,260.851440 403.782410,244.158234 389.853699,230.289032 
	C378.435516,218.919632 364.739716,212.350662 347.818939,215.881195 
	C348.015350,217.539581 348.136475,218.562347 348.307770,220.008759 
	C346.415833,219.486420 345.031891,219.104324 343.579987,218.703461 
	C343.719238,219.316116 343.941589,219.936646 343.979614,220.568283 
	C344.013458,221.130692 343.843231,221.705368 343.727631,222.526337 
	C344.825073,222.366241 345.464783,222.250671 346.109619,222.185455 
	C346.694214,222.126312 347.284332,222.122025 347.914093,222.091522 
	C347.670441,225.238235 350.449738,227.589111 352.970642,226.724640 
	C355.297577,225.926712 355.297577,225.926697 356.375031,229.608643 
M322.750214,247.472565 
	C322.188263,245.635284 321.626312,243.798004 321.064392,241.960739 
	C320.604431,242.026749 320.144501,242.092758 319.684570,242.158768 
	C319.095642,244.343246 319.051514,246.912811 317.825653,248.647095 
	C311.760406,257.227844 312.962097,266.494141 315.213531,275.667450 
	C316.708252,281.757568 319.737000,282.433746 325.632599,278.765015 
	C323.272247,268.814240 319.580078,258.858093 322.750214,247.472565 
M341.473877,219.493088 
	C341.473877,219.493088 341.513092,219.491562 341.473877,219.493088 
z"/>
<path fill="#040404" opacity="1.000000" stroke="none" 
	d="
M501.000000,233.533875 
	C500.695953,233.972153 500.272095,233.799271 500.105011,233.937256 
	C491.556915,240.996445 484.450134,249.025024 480.454224,259.704651 
	C476.312256,270.774628 471.414520,281.561859 467.162445,291.720062 
	C464.387848,291.720062 461.774353,292.428253 459.906097,291.550415 
	C457.250763,290.302795 454.345032,288.320435 453.014374,285.858490 
	C451.522583,283.098541 451.348511,279.472107 451.161163,276.190704 
	C450.632599,266.932953 450.398743,257.658447 450.026154,248.391449 
	C449.981537,247.281570 449.797394,246.177307 449.630249,244.628922 
	C444.038605,246.267548 440.888214,250.011307 438.787140,254.543777 
	C433.648987,265.627960 428.959229,276.921875 423.726013,287.959259 
	C421.591339,292.461426 417.755768,292.332520 414.972168,288.140289 
	C410.530792,281.451263 409.555237,274.700104 413.099731,267.021820 
	C420.065186,251.932587 430.526215,239.612747 442.128815,228.041794 
	C443.975281,226.200317 445.306458,226.626297 447.271667,227.648163 
	C455.073822,231.705124 460.685272,237.311615 461.782623,246.517929 
	C462.045471,248.723358 462.734772,250.877945 463.440735,253.995560 
	C466.745422,248.739944 469.539062,244.297073 472.616943,240.102631 
	C472.906464,241.544266 472.911774,242.737488 472.776184,244.001770 
	C472.773132,244.068344 472.911041,244.063889 473.325348,243.852768 
	C474.731445,241.427628 475.861084,239.209137 477.337738,236.939560 
	C479.519501,234.327850 481.354248,231.767227 483.536530,229.127441 
	C485.592621,228.211060 487.467163,227.593170 488.956604,226.466309 
	C490.121094,225.585342 492.614441,223.999634 488.864594,222.956329 
	C491.815613,219.327759 495.879547,218.881271 500.572510,219.005493 
	C501.000000,223.689255 501.000000,228.378510 501.000000,233.533875 
z"/>
<path fill="#050505" opacity="1.000000" stroke="none" 
	d="
M168.216003,301.847290 
	C170.652359,305.690094 171.031433,309.199432 168.196808,313.024384 
	C162.415237,311.082306 157.425720,308.962616 153.855865,302.982880 
	C147.191757,291.820038 139.302628,281.388489 131.609543,270.196228 
	C129.911453,271.562927 129.051605,272.218689 128.231567,272.920990 
	C123.639160,276.853943 119.114082,281.328369 114.283463,284.409424 
	C107.911232,288.473755 99.632858,289.632874 92.072189,291.661804 
	C90.922478,291.970306 89.291771,290.056549 87.767990,289.471802 
	C78.853706,286.050934 72.856873,274.669922 75.140221,265.310883 
	C80.578911,243.018661 93.383530,226.874207 114.886230,218.192154 
	C120.848930,215.784622 126.825890,214.299698 132.511200,219.646973 
	C139.852722,226.551956 140.096695,236.157745 132.629425,242.778168 
	C131.778412,243.532654 130.945435,244.307480 130.743240,244.491425 
	C132.590103,263.766907 144.957901,276.184845 156.661270,289.005646 
	C160.463577,293.170959 164.247971,297.352600 168.216003,301.847290 
M101.026741,272.658051 
	C105.954880,269.976898 111.363373,267.901581 115.694328,264.467346 
	C121.632111,259.758942 121.329346,258.868103 117.068932,252.755096 
	C111.285469,244.456726 112.777122,241.101746 122.661407,239.550964 
	C124.340820,239.287476 125.826271,237.787781 127.401337,236.859222 
	C127.084831,236.201263 126.768318,235.543289 126.451813,234.885315 
	C123.621346,235.558090 120.650032,235.883240 117.984528,236.963181 
	C105.742104,241.923248 99.687904,253.826782 90.522041,262.244873 
	C87.637283,264.894257 87.418785,270.446777 85.544922,275.947662 
	C91.038719,274.824341 95.661781,273.879059 101.026741,272.658051 
z"/>
<path fill="#050505" opacity="1.000000" stroke="none" 
	d="
M280.584076,290.689453 
	C281.060303,290.910065 281.957611,291.315826 281.953461,291.325226 
	C280.101898,295.536499 278.189117,299.720825 276.284149,303.890564 
	C265.747375,299.268433 263.167114,293.981476 266.618866,283.655212 
	C268.650024,277.578766 271.316986,271.714844 273.616486,265.959229 
	C267.787567,265.959229 262.065918,265.658997 256.421173,266.184723 
	C255.120529,266.305847 253.580765,269.102844 253.012741,270.935516 
	C250.607651,278.695282 248.528809,286.556091 246.317352,294.376221 
	C246.282043,294.501068 246.077271,294.578003 244.810379,295.578918 
	C241.956604,292.407867 237.571701,289.559570 236.452057,285.751282 
	C235.204468,281.507782 236.926651,276.391144 237.387665,271.306763 
	C234.846329,271.306763 232.101593,271.306763 228.585724,271.306763 
	C231.003708,268.846375 232.548294,266.022095 234.802933,265.237030 
	C239.739639,263.518158 241.284042,259.617371 243.236511,255.544601 
	C248.029755,245.545975 253.083099,235.671753 258.061279,225.762299 
	C259.625519,222.648575 261.343384,219.611481 262.883484,216.486359 
	C264.825836,212.545044 267.716370,211.899567 270.971100,214.797699 
	C276.331970,219.571167 276.699249,227.259750 273.586853,232.963150 
	C269.972717,239.585953 265.831848,245.921295 261.430695,253.188705 
	C263.022736,252.527145 264.075317,252.334000 264.809631,251.744461 
	C269.151154,248.258865 274.175720,247.160843 279.355499,248.548676 
	C282.533478,249.400192 283.999268,248.312912 285.365845,245.959167 
	C289.947479,238.068024 294.427460,230.114212 299.202698,222.341904 
	C300.275513,220.595734 302.388153,219.488419 304.022125,218.086990 
	C305.450623,219.756653 307.404205,221.206345 308.212494,223.135818 
	C311.010986,229.816101 307.665619,235.707993 305.140900,241.607498 
	C304.120758,243.991241 302.979034,246.391953 301.469452,248.478790 
	C299.793915,250.794952 297.537994,252.682037 295.718536,254.906265 
	C294.333832,256.598999 291.972961,258.732330 292.230530,260.313934 
	C293.323273,267.022858 287.700623,271.022461 286.262909,276.664154 
	C285.814850,278.422363 282.208862,279.189178 281.197327,281.038269 
	C279.966522,283.288055 279.949371,286.201782 279.243317,289.343689 
	C278.858063,290.297852 278.636719,290.736633 278.169373,291.408813 
	C277.740845,292.321167 277.558319,293.000122 277.375793,293.679108 
	C278.085144,293.270355 278.794464,292.861603 279.698639,292.276917 
	C280.123657,291.630493 280.353882,291.159973 280.584076,290.689453 
z"/>
<path fill="#050505" opacity="1.000000" stroke="none" 
	d="
M30.695986,257.187775 
	C28.336451,255.833694 25.913961,255.116104 24.179705,253.607391 
	C16.699579,247.100098 17.161432,232.784653 25.076494,226.941666 
	C35.088020,219.551025 46.440010,216.285660 58.858624,217.146225 
	C66.130127,217.650101 71.642738,223.455505 70.807106,230.255890 
	C70.274658,234.588989 66.172119,235.785461 62.077633,237.072906 
	C61.962746,235.340485 61.873314,233.991867 61.785107,232.661804 
	C50.688873,232.287354 40.794247,235.878754 32.229465,244.319397 
	C33.503429,244.800964 34.861332,245.106262 36.001564,245.779984 
	C42.076283,249.369156 48.372116,252.680313 54.005943,256.874207 
	C56.406956,258.661560 58.350807,262.218353 58.792595,265.222504 
	C59.530499,270.240295 60.428658,275.630737 54.467686,279.241943 
	C48.390656,282.923492 43.709568,289.036774 35.443512,288.481018 
	C33.987347,288.383148 32.416161,290.632446 30.831423,291.698730 
	C24.469788,295.979034 19.685209,295.595520 13.696608,291.290894 
	C10.348805,288.884521 7.481124,286.808533 5.909721,282.512299 
	C4.246506,277.964996 4.361231,274.897156 8.818978,272.082275 
	C13.932475,280.636292 21.100964,277.946960 28.018606,275.062958 
	C32.396450,273.237823 36.465698,270.672485 41.936462,267.768646 
	C37.671448,263.766968 34.310581,260.613617 30.695986,257.187775 
z"/>
<path fill="#050505" opacity="1.000000" stroke="none" 
	d="
M194.387360,225.808273 
	C196.619598,223.373581 198.479187,221.084930 200.368393,218.820969 
	C201.731186,217.187805 202.891754,215.245010 204.576950,214.056091 
	C206.871323,212.437393 209.142242,212.346024 210.419388,215.756912 
	C211.343460,218.224808 212.782135,220.499985 214.178131,223.225922 
	C220.190186,222.079132 226.185501,220.905258 232.192856,219.796600 
	C241.456894,218.086929 246.276306,221.747330 246.852783,230.837296 
	C246.904861,231.658508 247.191849,232.464844 247.422440,233.518982 
	C236.968491,235.610977 226.514526,237.841736 216.004395,239.765686 
	C206.267563,241.548050 203.275436,244.565643 201.017456,254.489532 
	C200.615372,256.256653 201.660385,261.161255 196.567230,259.123291 
	C196.126999,260.616211 195.277451,262.125183 195.335266,263.598572 
	C195.442001,266.319000 197.154602,269.598541 192.131912,269.368652 
	C192.085312,270.748169 191.990250,272.128448 192.011475,273.506927 
	C192.022995,274.254211 192.509109,275.084015 192.309006,275.730438 
	C190.750046,280.766693 189.076218,285.767426 187.470108,290.680511 
	C180.342194,292.613281 178.321808,288.208496 176.860992,282.344543 
	C175.323349,276.172119 177.193100,270.925018 179.274368,265.554321 
	C182.143127,258.151520 185.216888,250.828156 188.403137,242.977219 
	C183.789780,242.977219 179.449707,242.299942 175.431625,243.148102 
	C170.373154,244.215881 168.348373,241.995483 167.170685,237.855087 
	C166.628799,235.949890 166.152039,233.991638 165.967697,232.027252 
	C165.684357,229.007935 166.828491,227.775772 170.279831,227.685410 
	C178.205261,227.477936 186.112656,226.581604 194.387360,225.808273 
z"/>
<path fill="#0B0B0B" opacity="1.000000" stroke="none" 
	d="
M356.169403,229.327942 
	C355.297577,225.926697 355.297577,225.926712 352.970642,226.724640 
	C350.449738,227.589111 347.670441,225.238235 347.914093,222.091522 
	C347.284332,222.122025 346.694214,222.126312 346.109619,222.185455 
	C345.464783,222.250671 344.825073,222.366241 343.727631,222.526337 
	C343.843231,221.705368 344.013458,221.130692 343.979614,220.568283 
	C343.941589,219.936646 343.719238,219.316116 343.579987,218.703461 
	C345.031891,219.104324 346.415833,219.486420 348.307770,220.008759 
	C348.136475,218.562347 348.015350,217.539581 347.818939,215.881195 
	C364.739716,212.350662 378.435516,218.919632 389.853699,230.289032 
	C403.782410,244.158234 404.468079,260.851440 396.529999,277.943115 
	C393.504852,284.456665 389.059906,290.532074 381.776703,293.192657 
	C385.857697,287.346130 388.028351,280.890228 388.530487,274.070801 
	C389.035553,267.212097 388.641602,260.287170 388.641602,253.512161 
	C390.104431,254.824890 391.418915,256.004517 392.665771,257.123444 
	C394.161011,247.233292 391.981201,242.004715 381.647247,236.807556 
	C373.835052,232.878647 365.853851,228.247086 356.169403,229.327942 
M384.005646,238.519714 
	C384.301331,238.555954 384.596985,238.592209 384.892670,238.628448 
	C384.763763,238.435501 384.634857,238.242554 384.005646,238.519714 
z"/>
<path fill="#0C0C0C" opacity="1.000000" stroke="none" 
	d="
M322.571777,247.870819 
	C319.580078,258.858093 323.272247,268.814240 325.632599,278.765015 
	C319.737000,282.433746 316.708252,281.757568 315.213531,275.667450 
	C312.962097,266.494141 311.760406,257.227844 317.825653,248.647095 
	C319.051514,246.912811 319.095642,244.343246 319.684570,242.158768 
	C320.144501,242.092758 320.604431,242.026749 321.064392,241.960739 
	C321.626312,243.798004 322.188263,245.635284 322.571777,247.870819 
z"/>
<path fill="#262626" opacity="1.000000" stroke="none" 
	d="
M488.543091,222.829315 
	C492.614441,223.999634 490.121094,225.585342 488.956604,226.466309 
	C487.467163,227.593170 485.592621,228.211060 483.433380,229.016571 
	C482.982727,228.984879 482.776337,228.763275 482.853943,228.332047 
	C482.901764,227.016983 482.871918,226.133163 482.842102,225.249329 
	C484.132660,223.338791 484.973907,220.479309 488.543091,222.829315 
z"/>
<path fill="#262626" opacity="1.000000" stroke="none" 
	d="
M483.085876,229.095734 
	C481.354248,231.767227 479.519501,234.327850 477.343384,236.945007 
	C477.001984,237.001541 477.012177,237.009689 476.903168,236.720398 
	C476.509613,235.888382 476.225098,235.345642 475.940582,234.802902 
	C477.385529,232.567017 478.830505,230.331146 480.731049,228.194305 
	C481.716522,228.449982 482.246429,228.606628 482.776337,228.763275 
	C482.776337,228.763275 482.982727,228.984879 483.085876,229.095734 
M479.336090,232.450989 
	C479.336090,232.450989 479.508240,232.539017 479.508240,232.539017 
	C479.508240,232.539017 479.476776,232.355042 479.336090,232.450989 
z"/>
<path fill="#D2D2D2" opacity="1.000000" stroke="none" 
	d="
M326.911469,230.909637 
	C328.827057,228.874252 330.742615,226.838867 332.658173,224.803482 
	C333.173401,225.409485 333.688599,226.015472 334.203796,226.621475 
	C332.080048,228.069870 329.956299,229.518250 327.426117,230.991364 
	C327.019684,231.016068 326.911469,230.909622 326.911469,230.909637 
z"/>
<path fill="#262626" opacity="1.000000" stroke="none" 
	d="
M472.917053,243.930710 
	C472.911774,242.737488 472.906464,241.544266 472.916107,239.901154 
	C472.931030,239.451248 472.992126,239.554779 473.410217,239.620239 
	C474.138641,238.676926 474.448975,237.668167 474.759277,236.659409 
	C474.759308,236.659409 474.763458,236.820374 475.089874,236.843460 
	C475.948242,236.914261 476.480225,236.961975 477.012177,237.009674 
	C477.012177,237.009689 477.001984,237.001541 476.996338,236.996094 
	C475.861084,239.209137 474.731445,241.427628 473.294006,243.818909 
	C472.986237,243.991714 472.917053,243.930710 472.917053,243.930710 
z"/>
<path fill="#D2D2D2" opacity="1.000000" stroke="none" 
	d="
M327.075989,231.066956 
	C327.132294,232.813660 327.132294,234.509476 327.132294,236.205292 
	C326.716278,236.213486 326.300262,236.221664 325.884216,236.229858 
	C325.993835,234.489838 326.103424,232.749832 326.562256,230.959717 
	C326.911469,230.909622 327.019684,231.016068 327.075989,231.066956 
z"/>
<path fill="#040404" opacity="1.000000" stroke="none" 
	d="
M482.853943,228.332031 
	C482.246429,228.606628 481.716522,228.449982 481.033539,228.046341 
	C481.345245,227.062881 481.810028,226.326401 482.558472,225.419632 
	C482.871918,226.133163 482.901764,227.016983 482.853943,228.332031 
z"/>
<path fill="#040404" opacity="1.000000" stroke="none" 
	d="
M474.456543,236.872070 
	C474.448975,237.668167 474.138641,238.676926 473.379791,239.672058 
	C473.338776,238.800537 473.746277,237.942642 474.456543,236.872070 
z"/>
<path fill="#040404" opacity="1.000000" stroke="none" 
	d="
M476.903168,236.720398 
	C476.480225,236.961975 475.948242,236.914261 475.019897,236.803650 
	C474.896545,236.208023 475.169556,235.675278 475.691589,234.972717 
	C476.225098,235.345642 476.509613,235.888382 476.903168,236.720398 
z"/>
<path fill="#0B0B0B" opacity="1.000000" stroke="none" 
	d="
M341.493469,219.492325 
	C341.513092,219.491562 341.473877,219.493088 341.493469,219.492325 
z"/>
<path fill="#262626" opacity="1.000000" stroke="none" 
	d="
M473.017578,244.025574 
	C472.911041,244.063889 472.773132,244.068344 472.776154,244.001770 
	C472.917053,243.930710 472.986237,243.991714 473.017578,244.025574 
z"/>
<path fill="#F8F8F8" opacity="1.000000" stroke="none" 
	d="
M100.655792,272.795929 
	C95.661781,273.879059 91.038719,274.824341 85.544922,275.947662 
	C87.418785,270.446777 87.637283,264.894257 90.522041,262.244873 
	C99.687904,253.826782 105.742104,241.923248 117.984528,236.963181 
	C120.650032,235.883240 123.621346,235.558090 126.451813,234.885315 
	C126.768318,235.543289 127.084831,236.201263 127.401337,236.859222 
	C125.826271,237.787781 124.340820,239.287476 122.661407,239.550964 
	C112.777122,241.101746 111.285469,244.456726 117.068932,252.755096 
	C121.329346,258.868103 121.632111,259.758942 115.694328,264.467346 
	C111.363373,267.901581 105.954880,269.976898 100.655792,272.795929 
z"/>
<path fill="#FFFFFF" opacity="1.000000" stroke="none" 
	d="
M279.503815,292.452850 
	C278.794464,292.861603 278.085144,293.270355 277.375793,293.679108 
	C277.558319,293.000122 277.740845,292.321167 278.424561,291.742584 
	C279.118439,292.046265 279.311127,292.249573 279.503815,292.452850 
z"/>
<path fill="#FFFFFF" opacity="1.000000" stroke="none" 
	d="
M278.670563,291.509216 
	C278.636719,290.736633 278.858063,290.297852 279.258881,289.689819 
	C279.636505,289.708282 279.834686,289.896027 280.308472,290.386597 
	C280.353882,291.159973 280.123657,291.630493 279.698639,292.276917 
	C279.311127,292.249573 279.118439,292.046265 278.670563,291.509216 
z"/>
<path fill="#FFFFFF" opacity="1.000000" stroke="none" 
	d="
M384.255798,238.284668 
	C384.634857,238.242554 384.763763,238.435501 384.892670,238.628448 
	C384.596985,238.592209 384.301331,238.555954 384.255798,238.284668 
z"/>
<path fill="#040404" opacity="1.000000" stroke="none" 
	d="
M479.406433,232.403015 
	C479.476776,232.355042 479.508240,232.539017 479.508240,232.539017 
	C479.508240,232.539017 479.336090,232.450989 479.406433,232.403015 
z"/>
</svg>