<svg version="1.1" id="Layer_1" xmlns="http://www.w3.org/2000/svg" xmlns:xlink="http://www.w3.org/1999/xlink" x="0px" y="0px"
	 width="100%" viewBox="0 0 500 500" enable-background="new 0 0 500 500" xml:space="preserve">
<path fill="#000000" opacity="1.000000" stroke="none" 
	d="
M501.000000,235.000000 
	C501.000000,323.647430 501.000000,412.294861 501.000000,500.971130 
	C334.388733,500.971130 167.777435,500.971130 1.083073,500.971130 
	C1.083073,334.424896 1.083073,167.849747 1.083073,1.137299 
	C167.666595,1.137299 334.333282,1.137299 501.000000,1.137299 
	C501.000000,73.434555 501.000000,145.752258 500.572479,218.538345 
	C495.874847,218.866547 491.819977,219.341324 488.531799,222.816895 
	C486.708618,223.021667 484.636658,222.865250 483.833282,223.799561 
	C481.277466,226.772003 479.194031,230.150589 476.647949,233.578552 
	C475.785645,234.767624 475.203461,235.750381 474.689209,236.770111 
	C474.757172,236.807083 474.747955,236.652618 474.446838,236.864563 
	C473.732483,237.930481 473.319305,238.784470 472.931274,239.589050 
	C472.956451,239.539642 472.888733,239.451782 472.599335,239.663391 
	C469.518951,244.319931 466.727936,248.764847 463.483856,253.931305 
	C462.657593,250.548843 461.727478,248.083252 461.495850,245.553711 
	C460.635956,236.162933 454.126495,231.435257 446.761536,227.487289 
	C445.707062,226.922043 443.426880,227.094666 442.608215,227.869995 
	C429.948853,239.859268 418.905640,253.068054 412.135132,269.404877 
	C409.012054,276.940643 411.496979,283.423248 415.964386,289.382874 
	C418.049408,292.164368 421.729248,291.872986 423.239075,288.693054 
	C428.553650,277.499908 433.517029,266.140503 438.674469,254.872025 
	C440.851929,250.114548 444.063416,246.409195 449.621552,244.516922 
	C449.806854,246.273392 449.989258,247.395996 450.034149,248.524063 
	C450.403290,257.799896 450.628387,267.083557 451.162109,276.349609 
	C451.351105,279.630951 451.553925,283.269989 453.076080,286.009064 
	C454.431641,288.448425 457.396240,290.358643 460.072235,291.575134 
	C461.960205,292.433380 464.553070,291.741150 466.597595,291.741150 
	C472.952026,277.720276 478.913849,263.033386 486.266663,249.079453 
	C489.302032,243.319046 495.321198,239.130096 500.023956,234.265701 
	C500.058838,234.229645 500.662109,234.743103 501.000000,235.000000 
M327.822052,230.953918 
	C329.270935,230.116013 330.719788,229.278122 332.168640,228.440216 
	C331.678833,227.854416 331.188995,227.268616 330.699158,226.682831 
	C329.444427,228.100037 328.189667,229.517242 326.235291,231.022812 
	C326.118256,232.779160 326.001221,234.535522 325.884216,236.291870 
	C326.290222,236.255096 326.696198,236.218323 327.102203,236.181549 
	C327.102203,234.485077 327.102203,232.788605 327.822052,230.953918 
M280.030609,290.087402 
	C279.830292,289.897614 279.629974,289.707794 279.405518,288.825562 
	C279.948486,286.200348 279.966248,283.287415 281.197906,281.039551 
	C282.211792,279.189117 285.851868,278.407043 286.262482,276.664703 
	C287.601257,270.983978 293.339752,267.037109 292.227875,260.327148 
	C291.966431,258.749207 294.324860,256.611084 295.707520,254.918106 
	C297.525299,252.692322 299.780396,250.803909 301.454895,248.486755 
	C302.963440,246.399261 304.099365,243.996719 305.124573,241.614746 
	C307.661377,235.720856 311.000580,229.833755 308.214905,223.153305 
	C307.409363,221.221558 305.461090,219.766342 304.036682,218.092667 
	C302.400848,219.488907 300.285706,220.589569 299.211121,222.331955 
	C294.250610,230.375168 289.693390,238.668182 284.679749,246.676376 
	C283.947327,247.846268 281.421844,248.677078 279.918457,248.440735 
	C274.377838,247.569702 269.361084,248.202148 264.835724,251.721985 
	C264.078308,252.311096 263.034790,252.532394 261.412354,253.228973 
	C265.813568,245.947235 269.857666,239.567642 273.576935,233.004013 
	C276.527069,227.797760 276.540161,219.471664 270.959381,214.890289 
	C268.877472,213.181213 265.786438,210.975525 263.843109,214.677368 
	C256.842926,228.012177 250.283630,241.577835 243.355469,254.951477 
	C241.675537,258.194305 239.528656,261.325073 237.033585,263.977875 
	C234.708725,266.449677 231.634613,268.216736 228.890335,270.294037 
	C229.041840,270.597565 229.193359,270.901123 229.344879,271.204651 
	C232.084274,271.204651 234.823669,271.204651 238.344574,271.204651 
	C234.479691,281.380829 234.163696,290.205811 246.119797,295.011353 
	C246.450043,293.926270 246.741241,293.026703 246.997818,292.117432 
	C249.025116,284.932404 250.924911,277.707611 253.155884,270.586517 
	C253.695175,268.865143 255.218216,266.262970 256.466644,266.156860 
	C262.111115,265.676941 267.819397,265.947113 273.625000,265.947113 
	C271.312042,271.733734 268.641663,277.594727 266.614136,283.670288 
	C263.172455,293.983521 265.765930,299.287170 276.284302,303.886536 
	C278.187531,299.719147 280.098572,295.536591 281.949188,291.327454 
	C281.952484,291.319977 281.060028,290.918701 280.030609,290.087402 
M132.141953,243.148041 
	C140.430496,235.938293 140.160004,226.232208 131.804230,219.048904 
	C126.244431,214.269318 120.532845,215.942856 114.942215,218.188675 
	C93.394264,226.844772 80.574837,243.007812 75.136856,265.330292 
	C72.853508,274.703278 79.021049,285.697113 87.770882,289.533936 
	C94.087189,292.303680 99.424255,290.837799 104.952049,287.984985 
	C105.939980,287.475128 107.159454,287.431885 108.192802,286.988556 
	C110.845970,285.850159 113.788658,285.039948 116.013268,283.319611 
	C121.042015,279.430725 125.707451,275.072021 131.525162,270.034668 
	C139.313660,281.416504 147.347885,292.140686 154.191467,303.577362 
	C157.735901,309.500641 162.973083,310.809326 168.078781,313.036865 
	C171.244339,308.986206 170.657181,305.317322 168.224411,302.014221 
	C165.672531,298.549377 162.622879,295.455902 159.892990,292.116547 
	C151.907410,282.348297 143.411407,272.925873 136.265610,262.573975 
	C132.917419,257.723572 132.187027,251.056259 130.377670,245.179306 
	C130.275314,244.846817 131.150497,244.213348 132.141953,243.148041 
M26.287928,293.879639 
	C29.319702,292.024109 32.365520,288.589539 35.380554,288.616394 
	C43.625587,288.689728 48.290489,282.928802 54.394302,279.319916 
	C60.464390,275.731018 59.478168,270.344238 58.800827,265.335236 
	C58.393829,262.325470 56.499352,258.717896 54.111530,256.935089 
	C48.492874,252.740021 42.157925,249.509766 36.162174,245.809143 
	C35.131092,245.172760 34.343395,244.142059 33.146622,243.013840 
	C41.766834,235.584549 51.124577,232.174057 62.049187,232.581772 
	C62.049187,234.207794 62.049187,235.431778 62.049187,236.728165 
	C67.331841,235.466431 70.793175,232.911026 70.938377,230.316925 
	C71.292297,223.994003 66.459160,217.895706 59.913708,217.279648 
	C46.421169,216.009644 34.135853,219.541138 23.635626,228.159180 
	C16.917023,233.673447 17.578049,248.296600 24.398691,253.902679 
	C24.779661,254.215820 25.113733,254.681213 25.550209,254.817307 
	C32.265850,256.911285 36.667946,261.725952 41.252285,267.995697 
	C36.738804,270.467072 32.759308,273.125336 28.420933,274.912354 
	C21.426907,277.793335 14.089859,280.893402 8.819230,272.114868 
	C3.278528,275.490540 4.659695,279.160431 6.751032,283.799072 
	C9.870848,290.718903 18.172256,295.775146 26.287928,293.879639 
M197.665802,223.196869 
	C195.055679,224.500748 192.544250,226.611877 189.815506,226.945419 
	C183.566040,227.709320 177.192642,228.000992 170.904160,227.717255 
	C166.565323,227.521500 165.508286,229.259735 166.013824,232.909088 
	C166.262329,234.702988 166.816055,236.459885 167.298935,238.215012 
	C168.434509,242.342468 170.613129,244.063614 175.326996,243.152130 
	C179.397903,242.364975 183.741623,242.988678 188.379303,242.988678 
	C185.187637,250.890259 182.162048,258.403748 179.117752,265.909698 
	C176.921844,271.323914 175.559311,276.685669 176.948746,282.723022 
	C178.483093,289.390076 181.049026,292.604065 187.634293,290.521667 
	C188.543335,287.508484 189.800385,284.547211 190.260178,281.466980 
	C190.690155,278.586212 194.966736,275.794495 190.777466,272.512787 
	C190.552292,272.336395 191.497116,269.710938 192.438614,269.173096 
	C195.778671,267.265076 195.762238,267.425903 195.628952,264.654175 
	C195.538818,262.780457 195.797302,260.889923 195.844360,260.025787 
	C197.650513,259.437775 199.087875,259.405426 199.448792,258.765747 
	C200.323944,257.214661 200.494095,255.276428 201.311508,253.680191 
	C203.959030,248.510223 204.012161,241.360931 211.466385,239.767639 
	C213.049393,239.429306 214.803360,239.919006 216.401291,239.617554 
	C226.769333,237.661697 237.115982,235.592560 247.441238,233.566101 
	C247.214539,232.542725 246.753510,231.674423 246.901413,230.926529 
	C247.685944,226.959305 247.073990,223.262970 243.088211,221.755386 
	C239.714355,220.479248 235.823944,219.636353 232.280701,219.948395 
	C226.222168,220.481934 220.256378,222.068802 214.148346,223.233002 
	C212.962173,220.854858 211.938629,218.778427 210.893677,216.712799 
	C208.646011,212.269592 205.546768,211.875290 202.339432,215.856873 
	C200.685974,217.909485 199.497284,220.336502 197.665802,223.196869 
M348.180969,225.388840 
	C353.406097,227.446671 358.403809,229.622101 364.294617,230.194122 
	C369.464813,230.696152 374.301941,234.155807 379.396606,236.004883 
	C390.448822,240.016235 393.536957,244.622131 392.795471,256.597198 
	C392.045319,256.058502 391.297882,255.515991 390.544098,254.982452 
	C389.997559,254.595612 389.442596,254.220703 388.739136,253.735443 
	C387.701477,266.817322 392.132599,281.329590 380.395813,293.747101 
	C382.894928,292.777771 384.617767,292.564484 385.702118,291.618988 
	C397.374084,281.441681 402.266174,268.301483 401.260132,253.125443 
	C400.551727,242.439423 394.417267,233.935135 386.953949,227.059479 
	C379.876648,220.539429 370.592316,217.171539 361.188354,215.136459 
	C357.081512,214.247742 352.622345,214.987076 348.125458,214.987076 
	C347.912567,218.976547 347.752869,221.968750 348.180969,225.388840 
M325.417480,278.308838 
	C322.923859,267.433838 318.992310,256.663147 323.270386,245.527878 
	C321.961548,244.393890 320.903656,243.477310 320.097351,242.778732 
	C319.143860,245.079895 319.847626,248.712463 316.100098,250.178238 
	C315.660400,250.350220 315.447998,251.303452 315.278015,251.934372 
	C313.209900,259.610168 312.759125,267.348358 314.959442,275.050262 
	C316.799103,281.489746 319.342438,282.383545 325.417480,278.308838 
M333.239105,226.453949 
	C333.239105,226.453949 333.557831,226.590424 333.557831,226.590424 
	C333.557831,226.590424 333.477661,226.259018 333.239105,226.453949 
z"/>
<path fill="#FAFBFB" opacity="1.000000" stroke="none" 
	d="
M488.863647,222.954956 
	C491.819977,219.341324 495.874847,218.866547 500.572479,219.003357 
	C501.000000,224.022095 501.000000,229.044189 501.000000,234.533142 
	C500.662109,234.743103 500.058838,234.229645 500.023956,234.265701 
	C495.321198,239.130096 489.302032,243.319046 486.266663,249.079453 
	C478.913849,263.033386 472.952026,277.720276 466.597595,291.741150 
	C464.553070,291.741150 461.960205,292.433380 460.072235,291.575134 
	C457.396240,290.358643 454.431641,288.448425 453.076080,286.009064 
	C451.553925,283.269989 451.351105,279.630951 451.162109,276.349609 
	C450.628387,267.083557 450.403290,257.799896 450.034149,248.524063 
	C449.989258,247.395996 449.806854,246.273392 449.621552,244.516922 
	C444.063416,246.409195 440.851929,250.114548 438.674469,254.872025 
	C433.517029,266.140503 428.553650,277.499908 423.239075,288.693054 
	C421.729248,291.872986 418.049408,292.164368 415.964386,289.382874 
	C411.496979,283.423248 409.012054,276.940643 412.135132,269.404877 
	C418.905640,253.068054 429.948853,239.859268 442.608215,227.869995 
	C443.426880,227.094666 445.707062,226.922043 446.761536,227.487289 
	C454.126495,231.435257 460.635956,236.162933 461.495850,245.553711 
	C461.727478,248.083252 462.657593,250.548843 463.483856,253.931305 
	C466.727936,248.764847 469.518951,244.319931 472.599426,240.116150 
	C472.910034,241.558578 472.931183,242.759872 472.811859,244.020050 
	C472.790588,244.064682 472.909790,244.050400 473.305908,243.832764 
	C474.719543,241.417236 475.856293,239.205078 477.340393,236.938126 
	C481.541840,233.300873 483.404541,227.669510 489.308594,226.103836 
	C490.717163,225.730286 491.943787,223.622314 488.863647,222.954956 
z"/>
<path fill="#F9FAFA" opacity="1.000000" stroke="none" 
	d="
M131.856323,243.433990 
	C131.150497,244.213348 130.275314,244.846817 130.377670,245.179306 
	C132.187027,251.056259 132.917419,257.723572 136.265610,262.573975 
	C143.411407,272.925873 151.907410,282.348297 159.892990,292.116547 
	C162.622879,295.455902 165.672531,298.549377 168.224411,302.014221 
	C170.657181,305.317322 171.244339,308.986206 168.078781,313.036865 
	C162.973083,310.809326 157.735901,309.500641 154.191467,303.577362 
	C147.347885,292.140686 139.313660,281.416504 131.525162,270.034668 
	C125.707451,275.072021 121.042015,279.430725 116.013268,283.319611 
	C113.788658,285.039948 110.845970,285.850159 108.192802,286.988556 
	C107.159454,287.431885 105.939980,287.475128 104.952049,287.984985 
	C99.424255,290.837799 94.087189,292.303680 87.770882,289.533936 
	C79.021049,285.697113 72.853508,274.703278 75.136856,265.330292 
	C80.574837,243.007812 93.394264,226.844772 114.942215,218.188675 
	C120.532845,215.942856 126.244431,214.269318 131.804230,219.048904 
	C140.160004,226.232208 140.430496,235.938293 131.856323,243.433990 
M96.946487,255.490723 
	C95.196053,257.912903 92.830208,259.795227 90.822861,261.753479 
	C87.845467,264.657990 87.505913,270.266510 85.978699,274.921539 
	C97.354080,275.956024 106.514862,271.179108 114.924500,265.263702 
	C121.536491,260.612762 121.312912,258.921906 116.886841,252.464249 
	C111.383362,244.434616 112.927010,241.046494 122.484428,239.582489 
	C124.232254,239.314743 125.803467,237.893997 127.456207,237.005493 
	C127.098236,236.395477 126.740265,235.785446 126.382294,235.175430 
	C112.870079,235.837234 105.516396,246.016968 96.946487,255.490723 
z"/>
<path fill="#FAFAFA" opacity="1.000000" stroke="none" 
	d="
M280.585968,290.701355 
	C281.060028,290.918701 281.952484,291.319977 281.949188,291.327454 
	C280.098572,295.536591 278.187531,299.719147 276.284302,303.886536 
	C265.765930,299.287170 263.172455,293.983521 266.614136,283.670288 
	C268.641663,277.594727 271.312042,271.733734 273.625000,265.947113 
	C267.819397,265.947113 262.111115,265.676941 256.466644,266.156860 
	C255.218216,266.262970 253.695175,268.865143 253.155884,270.586517 
	C250.924911,277.707611 249.025116,284.932404 246.997818,292.117432 
	C246.741241,293.026703 246.450043,293.926270 246.119797,295.011353 
	C234.163696,290.205811 234.479691,281.380829 238.344574,271.204651 
	C234.823669,271.204651 232.084274,271.204651 229.344879,271.204651 
	C229.193359,270.901123 229.041840,270.597565 228.890335,270.294037 
	C231.634613,268.216736 234.708725,266.449677 237.033585,263.977875 
	C239.528656,261.325073 241.675537,258.194305 243.355469,254.951477 
	C250.283630,241.577835 256.842926,228.012177 263.843109,214.677368 
	C265.786438,210.975525 268.877472,213.181213 270.959381,214.890289 
	C276.540161,219.471664 276.527069,227.797760 273.576935,233.004013 
	C269.857666,239.567642 265.813568,245.947235 261.412354,253.228973 
	C263.034790,252.532394 264.078308,252.311096 264.835724,251.721985 
	C269.361084,248.202148 274.377838,247.569702 279.918457,248.440735 
	C281.421844,248.677078 283.947327,247.846268 284.679749,246.676376 
	C289.693390,238.668182 294.250610,230.375168 299.211121,222.331955 
	C300.285706,220.589569 302.400848,219.488907 304.036682,218.092651 
	C305.461090,219.766342 307.409363,221.221558 308.214905,223.153305 
	C311.000580,229.833755 307.661377,235.720856 305.124573,241.614746 
	C304.099365,243.996719 302.963440,246.399261 301.454895,248.486755 
	C299.780396,250.803909 297.525299,252.692322 295.707520,254.918106 
	C294.324860,256.611084 291.966431,258.749207 292.227875,260.327148 
	C293.339752,267.037109 287.601257,270.983978 286.262482,276.664703 
	C285.851868,278.407043 282.211792,279.189117 281.197906,281.039551 
	C279.966248,283.287415 279.948486,286.200348 279.240601,289.343109 
	C278.856445,290.299805 278.637207,290.738953 278.173370,291.413391 
	C277.743042,292.326782 277.557312,293.004883 277.371582,293.683014 
	C278.083496,293.274078 278.795410,292.865143 279.700378,292.280090 
	C280.124298,291.636444 280.355133,291.168915 280.585968,290.701355 
z"/>
<path fill="#FAFAFA" opacity="1.000000" stroke="none" 
	d="
M25.882126,293.956787 
	C18.172256,295.775146 9.870848,290.718903 6.751032,283.799072 
	C4.659695,279.160431 3.278528,275.490540 8.819230,272.114868 
	C14.089859,280.893402 21.426907,277.793335 28.420933,274.912354 
	C32.759308,273.125336 36.738804,270.467072 41.252285,267.995697 
	C36.667946,261.725952 32.265850,256.911285 25.550209,254.817307 
	C25.113733,254.681213 24.779661,254.215820 24.398691,253.902679 
	C17.578049,248.296600 16.917023,233.673447 23.635626,228.159180 
	C34.135853,219.541138 46.421169,216.009644 59.913708,217.279648 
	C66.459160,217.895706 71.292297,223.994003 70.938377,230.316925 
	C70.793175,232.911026 67.331841,235.466431 62.049187,236.728165 
	C62.049187,235.431778 62.049187,234.207794 62.049187,232.581772 
	C51.124577,232.174057 41.766834,235.584549 33.146622,243.013840 
	C34.343395,244.142059 35.131092,245.172760 36.162174,245.809143 
	C42.157925,249.509766 48.492874,252.740021 54.111530,256.935089 
	C56.499352,258.717896 58.393829,262.325470 58.800827,265.335236 
	C59.478168,270.344238 60.464390,275.731018 54.394302,279.319916 
	C48.290489,282.928802 43.625587,288.689728 35.380554,288.616394 
	C32.365520,288.589539 29.319702,292.024109 25.882126,293.956787 
z"/>
<path fill="#FAFAFA" opacity="1.000000" stroke="none" 
	d="
M197.882202,222.895599 
	C199.497284,220.336502 200.685974,217.909485 202.339432,215.856873 
	C205.546768,211.875290 208.646011,212.269592 210.893677,216.712799 
	C211.938629,218.778427 212.962173,220.854858 214.148346,223.233002 
	C220.256378,222.068802 226.222168,220.481934 232.280701,219.948395 
	C235.823944,219.636353 239.714355,220.479248 243.088211,221.755386 
	C247.073990,223.262970 247.685944,226.959305 246.901413,230.926529 
	C246.753510,231.674423 247.214539,232.542725 247.441238,233.566101 
	C237.115982,235.592560 226.769333,237.661697 216.401291,239.617554 
	C214.803360,239.919006 213.049393,239.429306 211.466385,239.767639 
	C204.012161,241.360931 203.959030,248.510223 201.311508,253.680191 
	C200.494095,255.276428 200.323944,257.214661 199.448792,258.765747 
	C199.087875,259.405426 197.650513,259.437775 195.844360,260.025787 
	C195.797302,260.889923 195.538818,262.780457 195.628952,264.654175 
	C195.762238,267.425903 195.778671,267.265076 192.438614,269.173096 
	C191.497116,269.710938 190.552292,272.336395 190.777466,272.512787 
	C194.966736,275.794495 190.690155,278.586212 190.260178,281.466980 
	C189.800385,284.547211 188.543335,287.508484 187.634552,290.521729 
	C181.049026,292.604065 178.483093,289.390076 176.948746,282.723022 
	C175.559311,276.685669 176.921844,271.323914 179.117752,265.909698 
	C182.162048,258.403748 185.187637,250.890259 188.379303,242.988678 
	C183.741623,242.988678 179.397903,242.364975 175.326996,243.152130 
	C170.613129,244.063614 168.434509,242.342468 167.298935,238.215012 
	C166.816055,236.459885 166.262329,234.702988 166.013824,232.909088 
	C165.508286,229.259735 166.565323,227.521500 170.904160,227.717255 
	C177.192642,228.000992 183.566040,227.709320 189.815506,226.945419 
	C192.544250,226.611877 195.055679,224.500748 197.882202,222.895599 
z"/>
<path fill="#F4F5F5" opacity="1.000000" stroke="none" 
	d="
M347.887085,225.174896 
	C347.752869,221.968750 347.912567,218.976547 348.125458,214.987076 
	C352.622345,214.987076 357.081512,214.247742 361.188354,215.136459 
	C370.592316,217.171539 379.876648,220.539429 386.953949,227.059479 
	C394.417267,233.935135 400.551727,242.439423 401.260132,253.125443 
	C402.266174,268.301483 397.374084,281.441681 385.702118,291.618988 
	C384.617767,292.564484 382.894928,292.777771 380.395813,293.747101 
	C392.132599,281.329590 387.701477,266.817322 388.739136,253.735443 
	C389.442596,254.220703 389.997559,254.595612 390.544098,254.982452 
	C391.297882,255.515991 392.045319,256.058502 392.798218,256.593292 
	C393.536957,244.622131 390.448822,240.016235 379.396606,236.004883 
	C374.301941,234.155807 369.464813,230.696152 364.294617,230.194122 
	C358.403809,229.622101 353.406097,227.446671 347.887085,225.174896 
M354.500000,227.000000 
	C354.633331,226.800003 354.766663,226.600006 354.899994,226.399979 
	C354.600006,226.433319 354.299988,226.466644 354.500000,227.000000 
z"/>
<path fill="#F4F5F4" opacity="1.000000" stroke="none" 
	d="
M325.389160,278.691162 
	C319.342438,282.383545 316.799103,281.489746 314.959442,275.050262 
	C312.759125,267.348358 313.209900,259.610168 315.278015,251.934372 
	C315.447998,251.303452 315.660400,250.350220 316.100098,250.178238 
	C319.847626,248.712463 319.143860,245.079895 320.097351,242.778732 
	C320.903656,243.477310 321.961548,244.393890 323.270386,245.527878 
	C318.992310,256.663147 322.923859,267.433838 325.389160,278.691162 
M318.053894,248.379196 
	C318.277130,248.445801 318.500366,248.512405 318.723572,248.579025 
	C318.646271,248.369629 318.568970,248.160248 318.053894,248.379196 
z"/>
<path fill="#D8DBDA" opacity="1.000000" stroke="none" 
	d="
M488.531799,222.816895 
	C491.943787,223.622314 490.717163,225.730286 489.308594,226.103836 
	C483.404541,227.669510 481.541840,233.300873 477.344238,236.942108 
	C477.000702,237.000900 477.007324,237.007492 476.999512,236.553665 
	C476.970459,235.190628 476.949249,234.281433 476.928040,233.372223 
	C479.194031,230.150589 481.277466,226.772003 483.833282,223.799561 
	C484.636658,222.865250 486.708618,223.021667 488.531799,222.816895 
M479.344360,232.452789 
	C479.344360,232.452789 479.478455,232.363281 479.344360,232.452789 
z"/>
<path fill="#2B2B2B" opacity="1.000000" stroke="none" 
	d="
M326.934937,230.934448 
	C328.189667,229.517242 329.444427,228.100037 330.699158,226.682831 
	C331.188995,227.268616 331.678833,227.854416 332.168640,228.440216 
	C330.719788,229.278122 329.270935,230.116013 327.419617,230.984329 
	C327.017181,231.014740 326.934937,230.934448 326.934937,230.934448 
z"/>
<path fill="#D8DBDA" opacity="1.000000" stroke="none" 
	d="
M472.952332,243.961151 
	C472.931183,242.759872 472.910034,241.558578 472.888794,239.904541 
	C472.888733,239.451782 472.956451,239.539642 473.379608,239.605103 
	C474.117859,238.664581 474.432922,237.658600 474.747986,236.652618 
	C474.747955,236.652618 474.757172,236.807083 475.085358,236.832092 
	C475.944794,236.907227 476.476074,236.957352 477.007324,237.007492 
	C477.007324,237.007492 477.000702,237.000900 476.996887,236.996918 
	C475.856293,239.205078 474.719543,241.417236 473.287994,243.812714 
	C472.993195,243.996048 472.952332,243.961151 472.952332,243.961151 
z"/>
<path fill="#2B2B2B" opacity="1.000000" stroke="none" 
	d="
M327.059692,231.053436 
	C327.102203,232.788605 327.102203,234.485077 327.102203,236.181549 
	C326.696198,236.218323 326.290222,236.255096 325.884216,236.291870 
	C326.001221,234.535522 326.118256,232.779160 326.585114,230.978638 
	C326.934937,230.934448 327.017181,231.014740 327.059692,231.053436 
z"/>
<path fill="#FAFBFB" opacity="1.000000" stroke="none" 
	d="
M476.999512,236.553665 
	C476.476074,236.957352 475.944794,236.907227 475.017395,236.795105 
	C475.203461,235.750381 475.785645,234.767624 476.647949,233.578552 
	C476.949249,234.281433 476.970459,235.190628 476.999512,236.553665 
z"/>
<path fill="#FAFBFB" opacity="1.000000" stroke="none" 
	d="
M474.446838,236.864563 
	C474.432922,237.658600 474.117859,238.664581 473.354431,239.654510 
	C473.319305,238.784470 473.732483,237.930481 474.446838,236.864563 
z"/>
<path fill="#2B2B2B" opacity="1.000000" stroke="none" 
	d="
M333.358398,226.356476 
	C333.477661,226.259018 333.557831,226.590424 333.557831,226.590424 
	C333.557831,226.590424 333.239105,226.453949 333.358398,226.356476 
z"/>
<path fill="#D8DBDA" opacity="1.000000" stroke="none" 
	d="
M473.011108,244.016083 
	C472.909790,244.050400 472.790588,244.064682 472.811859,244.020050 
	C472.952332,243.961151 472.993195,243.996048 473.011108,244.016083 
z"/>
<path fill="#070707" opacity="1.000000" stroke="none" 
	d="
M97.117584,255.168320 
	C105.516396,246.016968 112.870079,235.837234 126.382294,235.175430 
	C126.740265,235.785446 127.098236,236.395477 127.456207,237.005493 
	C125.803467,237.893997 124.232254,239.314743 122.484428,239.582489 
	C112.927010,241.046494 111.383362,244.434616 116.886841,252.464249 
	C121.312912,258.921906 121.536491,260.612762 114.924500,265.263702 
	C106.514862,271.179108 97.354080,275.956024 85.978699,274.921539 
	C87.505913,270.266510 87.845467,264.657990 90.822861,261.753479 
	C92.830208,259.795227 95.196053,257.912903 97.117584,255.168320 
z"/>
<path fill="#000000" opacity="1.000000" stroke="none" 
	d="
M279.507294,292.456207 
	C278.795410,292.865143 278.083496,293.274078 277.371582,293.683014 
	C277.557312,293.004883 277.743042,292.326782 278.428467,291.747650 
	C279.121185,292.049835 279.314240,292.253021 279.507294,292.456207 
z"/>
<path fill="#000000" opacity="1.000000" stroke="none" 
	d="
M280.308289,290.394379 
	C280.355133,291.168915 280.124298,291.636444 279.700378,292.280090 
	C279.314240,292.253021 279.121185,292.049835 278.673035,291.512390 
	C278.637207,290.738953 278.856445,290.299805 279.252686,289.689331 
	C279.629974,289.707794 279.830292,289.897614 280.308289,290.394379 
z"/>
<path fill="#000000" opacity="1.000000" stroke="none" 
	d="
M354.250000,226.750000 
	C354.299988,226.466644 354.600006,226.433319 354.899994,226.399994 
	C354.766663,226.600006 354.633331,226.800003 354.250000,226.750000 
z"/>
<path fill="#000000" opacity="1.000000" stroke="none" 
	d="
M318.272766,248.165039 
	C318.568970,248.160248 318.646271,248.369629 318.723572,248.579010 
	C318.500366,248.512405 318.277130,248.445801 318.272766,248.165039 
z"/>
<path fill="#FAFBFB" opacity="1.000000" stroke="none" 
	d="
M479.411407,232.408035 
	C479.478455,232.363281 479.344360,232.452789 479.411407,232.408035 
z"/>
</svg>